IMDB: 
http://www.imdb.com/title/tt1713476/

PLOT INFO:
Chaos breaks out in a small Maryland town after an ecological disaster occurs.

MEDIAINFO:
General
Complete name                            : The.Bay.2012.HDRiP.AC3-2.0.XviD-AXED.avi
Format                                   : AVI
Format/Info                              : Audio Video Interleave
File size                                : 1.33 GiB
Duration                                 : 1h 25mn
Overall bit rate                         : 2 241 Kbps

Video
ID                                       : 0
Format                                   : MPEG-4 Visual
Format profile                           : Advanced Simple@L5
Format settings, BVOP                    : 2
Format settings, QPel                    : No
Format settings, GMC                     : No warppoints
Format settings, Matrix                  : Default (H.263)
Muxing mode                              : Packed bitstream
Codec ID                                 : XVID
Codec ID/Hint                            : XviD
Duration                                 : 1h 25mn
Bit rate                                 : 2 041 Kbps
Width                                    : 720 pixels
Height                                   : 400 pixels
Display aspect ratio                     : 16:9
Frame rate                               : 23.976 fps
Color space                              : YUV
Chroma subsampling                       : 4:2:0
Bit depth                                : 8 bits
Scan type                                : Progressive
Compression mode                         : Lossy
Bits/(Pixel*Frame)                       : 0.296
Stream size                              : 1.21 GiB (91%)
Writing library                          : XviD 64

Audio
ID                                       : 1
Format                                   : AC-3
Format/Info                              : Audio Coding 3
Mode extension                           : CM (complete main)
Format settings, Endianness              : Big
Codec ID                                 : 2000
Duration                                 : 1h 25mn
Bit rate mode                            : Constant
Bit rate                                 : 192 Kbps
Channel(s)                               : 2 channels
Channel positions                        : Front: L R
Sampling rate                            : 48.0 KHz
Bit depth                                : 16 bits
Compression mode                         : Lossy
Stream size                              : 117 MiB (9%)
Alignment                                : Aligned on interleaves
Interleave, duration                     : 64 ms (1.53 video frames)
Interleave, preload duration             : 192 ms
Title                                    : thebay




SOURCE:
720p wmv Digital VOD Rental


NOTES:
Enjoy this nice encode from our own 720p HD source of the new horror/thriller that hit theatres today from acclaimed director Barry Levinson!

AXED! - The only name to trust for VOD/HDRiP!